<svg width="1500" height="413" viewBox="0 0 1500 413" fill="none" xmlns="http://www.w3.org/2000/svg">
<g clip-path="url(#clip0)">
<path d="M181.715 413L166.16 360.702H76.6215L61.0663 413H0L85.3609 157.498H158.959L244.32 413H181.715ZM90.6926 313.678H152.144L149.45 304.613C142.122 279.819 136.112 258.706 131.422 241.273C126.731 223.841 123.892 212.597 122.902 207.543L121.418 199.962C119.366 213.879 110.04 248.763 93.4408 304.613L90.6926 313.678Z" fill="#3C2263"/>
<path d="M270.208 157.498H358.153C396.592 157.498 428.069 169.309 452.583 192.931C464.566 204.224 474.037 217.91 480.382 233.1C486.727 248.291 489.802 264.645 489.41 281.101C489.41 322.009 477.336 354.238 453.188 377.786C429.04 401.335 397.068 413.073 357.273 413H270.208V157.498ZM330.121 365.261H356.669C380.194 365.261 398.351 357.937 411.139 343.287C423.928 328.638 430.304 307.909 430.267 281.101C430.267 258.358 423.818 240.047 410.919 226.166C398.021 212.286 379.809 205.401 356.284 205.511H330.121V365.261Z" fill="#3C2263"/>
<path d="M521.784 157.498H609.728C648.204 157.498 679.699 169.309 704.214 192.931C716.178 204.235 725.634 217.924 731.968 233.113C738.303 248.302 741.375 264.651 740.985 281.101C740.985 322.009 728.911 354.238 704.763 377.786C680.615 401.335 648.699 413.073 609.014 413H521.784V157.498ZM581.696 365.261H608.299C631.769 365.261 649.963 357.9 662.715 343.287C675.467 328.675 681.898 307.854 681.898 281.101C682.868 260.968 675.924 241.253 662.55 226.166C649.615 212.433 631.403 205.547 607.915 205.511H581.696V365.261Z" fill="#3C2263"/>
<path d="M939.136 413L923.415 360.702H834.097L818.542 413H757.421L842.782 157.498H916.38L1001.74 413H939.136ZM848.113 313.678H909.564L906.926 304.613C899.597 279.819 893.588 258.706 888.897 241.273C884.207 223.841 881.367 212.597 880.378 207.543L878.839 199.962C876.823 213.879 867.461 248.763 850.752 304.613L848.113 313.678Z" fill="#3C2263"/>
<path d="M1437.45 413L1421.89 360.702H1332.36L1316.8 413H1255.73L1341.15 157.498H1414.75L1500 413H1437.45ZM1346.65 313.678H1408.1L1405.46 304.613C1398.13 279.819 1392.12 258.706 1387.43 241.273C1382.74 223.841 1379.9 212.597 1378.91 207.543L1377.37 199.962C1375.32 213.879 1365.96 248.763 1349.29 304.613L1346.65 313.678Z" fill="#3C2263"/>
<path fill-rule="evenodd" clip-rule="evenodd" d="M1063.25 89.9832H1106.5V98.1136H1054.45V1.97766H1105.62V10.108H1063.25V46.0354H1100.62V54.1657H1063.25V89.9832ZM871.967 2.08753H895.108C904.674 1.53651 914.102 4.57285 921.546 10.6024C924.716 13.3765 927.225 16.8241 928.889 20.6927C930.554 24.5614 931.331 28.7531 931.165 32.9609C931.205 36.8361 930.388 40.6724 928.773 44.1956C927.158 47.7188 924.784 50.8419 921.821 53.3417C914.798 59.2307 905.801 62.2348 896.647 61.7467H880.817V98.2784H871.967V2.08753ZM880.817 53.8361H897.636C904.154 54.1952 910.564 52.0534 915.555 47.8482C917.681 46.0005 919.378 43.7108 920.527 41.1394C921.676 38.5679 922.249 35.7767 922.206 32.9609C922.31 29.8821 921.75 26.817 920.565 23.9734C919.379 21.1298 917.596 18.5744 915.335 16.4804C909.968 11.8453 903.016 9.46352 895.932 9.83333H880.652L880.817 53.8361ZM734.884 62.0214V1.97766H743.734V61.7467C744.499 71.9031 741.264 81.9564 734.719 89.7635C727.724 95.8242 718.776 99.1606 709.518 99.1606C700.26 99.1606 691.312 95.8242 684.316 89.7635C677.914 82.2494 674.717 72.5253 675.412 62.6806V1.97766H684.261V62.7356C683.934 66.5325 684.363 70.3566 685.524 73.9868C686.684 77.617 688.553 80.9814 691.022 83.8855C693.451 86.2181 696.335 88.0266 699.493 89.1984C702.651 90.3703 706.017 90.8805 709.38 90.6974C726.383 90.6974 734.884 81.1387 734.884 62.0214ZM476.273 49.4413C475.68 60.1935 478.89 70.8115 485.342 79.4357C488.231 83.0321 491.924 85.8999 496.125 87.8083C500.326 89.7167 504.916 90.6122 509.527 90.4227C514.15 90.6477 518.76 89.7684 522.976 87.8577C527.191 85.9471 530.89 83.06 533.767 79.4357C539.897 70.678 542.898 60.1121 542.286 49.4413C542.948 38.6804 539.902 28.0176 533.657 19.2272C530.594 15.8095 526.845 13.0757 522.655 11.204C518.464 9.33232 513.925 8.36492 509.335 8.36492C504.744 8.36492 500.206 9.33232 496.015 11.204C491.824 13.0757 488.075 15.8095 485.012 19.2272C478.724 28.0015 475.639 38.667 476.273 49.4413ZM467.204 49.4413C466.512 36.4243 470.532 23.5934 478.527 13.2942C482.486 9.06104 487.273 5.68607 492.592 3.37866C497.91 1.07125 503.647 -0.119385 509.444 -0.119385C515.242 -0.119385 520.979 1.07125 526.297 3.37866C531.616 5.68607 536.403 9.06104 540.362 13.2942C548.212 23.6948 552.109 36.5451 551.355 49.5512C552.124 62.5422 548.226 75.3807 540.362 85.7533C536.617 90.1839 531.904 93.6964 526.587 96.0202C521.27 98.3441 515.49 99.4174 509.692 99.1573C503.872 99.3798 498.078 98.2791 492.747 95.9382C487.415 93.5973 482.684 90.0772 478.911 85.6434C470.708 75.4146 466.542 62.534 467.204 49.4413ZM351.007 98.1136H340.454L316.379 59H299.065V98.1136H290.271V1.97766H311.927C320.978 1.29597 329.956 4.01944 337.101 9.6136C339.958 12.4052 342.182 15.7772 343.624 19.5017C345.065 23.2262 345.69 27.2165 345.456 31.203C345.358 37.1299 343.439 42.8835 339.959 47.6834C336.385 52.4624 331.252 55.8434 325.449 57.2421L351.007 98.1136ZM299.065 51.1992H314.62C317.625 51.4004 320.639 50.9825 323.476 49.9713C326.312 48.9602 328.911 47.3775 331.11 45.3212C332.946 43.3915 334.378 41.1145 335.322 38.6241C336.266 36.1336 336.703 33.4798 336.606 30.8184C336.606 16.8284 328.71 9.83333 312.916 9.83333H299.065V51.1992ZM163.411 45.2114V90.9721C155.047 96.7353 145.035 99.6271 134.884 99.2123C128.417 99.5044 121.957 98.4871 115.893 96.2215C109.829 93.9558 104.286 90.4885 99.5966 86.0279C95.015 81.2362 91.4657 75.5559 89.1683 69.3385C86.871 63.121 85.8743 56.4986 86.24 49.8808C85.7354 36.7554 90.4369 23.9618 99.3218 14.2831C103.492 9.72012 108.595 6.10743 114.285 3.69032C119.976 1.27322 126.12 0.108298 132.301 0.274678C142.048 -0.0998038 151.709 2.21921 160.223 6.97673V16.8101C152.304 11.5127 142.925 8.82354 133.4 9.11918C128.303 8.9063 123.218 9.77537 118.481 11.6691C113.744 13.5629 109.462 16.4384 105.918 20.1061C98.5917 28.1603 94.7574 38.7876 95.2543 49.6611C94.9409 55.068 95.7132 60.4829 97.5256 65.587C99.338 70.691 102.154 75.381 105.808 79.3808C109.647 83.1151 114.216 86.0181 119.228 87.9085C124.24 89.7989 129.589 90.6361 134.939 90.3678C141.705 90.5148 148.403 89.0061 154.452 85.973V53.0121H131.916V45.2114H163.411Z" fill="#3C2263"/>
<path fill-rule="evenodd" clip-rule="evenodd" d="M1092.76 282.31L1015.15 155.465H1083.58L1126.4 230.726C1131.51 221.277 1228.03 53.5062 1237.43 36.3116C1246.83 19.117 1253.21 7.30603 1256.56 0.933594H1328.45L1161.19 282.694L1244.19 413H1174.22L1127.56 332.795C1121.95 343.232 1113.8 357.882 1103.1 376.743C1092.4 395.604 1085.51 407.763 1082.43 413.219H1011.36L1092.76 282.31Z" fill="#3C2263"/>
</g>
<defs>
<clipPath id="clip0">
<rect width="1500" height="413" fill="white"/>
</clipPath>
</defs>
</svg>